<svg id="Layer_1" data-name="Layer 1" xmlns="http://www.w3.org/2000/svg" viewBox="0 0 394.02 97.18"><defs><style>.cls-1{fill:#fff;}</style></defs><title>L&amp;amp;LlogoFKO</title><path class="cls-1" d="M1.13,15.86c0-2.21,0-4.14-.1-5.79S.89,7,.8,5.8.59,3.61.45,2.8A17.15,17.15,0,0,0,0,.8V.64H9V.8a19.79,19.79,0,0,0-.43,2c-.13.81-.25,1.81-.35,3S8,8.42,8,10.07s-.08,3.58-.08,5.79V43.64c0,2.21,0,4.13.08,5.78s.13,3.07.23,4.27.22,2.19.35,3a17.38,17.38,0,0,0,.43,2v.16H0v-.16c.15-.55.3-1.21.45-2a27.82,27.82,0,0,0,.35-3C.89,52.5,1,51.07,1,49.42s.09-3.58.1-5.78Z" transform="translate(0 0.05)"/><path class="cls-1" d="M16.89,38.84A20.13,20.13,0,0,1,23,24.15a20.6,20.6,0,0,1,6.76-4.32,22.45,22.45,0,0,1,8.38-1.56,23.16,23.16,0,0,1,8.28,1.46,20.51,20.51,0,0,1,6.76,4.15,19.3,19.3,0,0,1,4.54,6.54A22.63,22.63,0,0,1,58,46.78a19.16,19.16,0,0,1-4.13,6.54,20.2,20.2,0,0,1-6.68,4.54,22.88,22.88,0,0,1-9.1,1.69,23.3,23.3,0,0,1-8.22-1.44A20.1,20.1,0,0,1,23.13,54a19.31,19.31,0,0,1-4.56-6.53A21.36,21.36,0,0,1,16.89,38.84ZM39,56.72a11.73,11.73,0,0,0,5.08-1.09,11.11,11.11,0,0,0,4-3.16,15,15,0,0,0,2.61-5,22.33,22.33,0,0,0,.94-6.7,32.12,32.12,0,0,0-.9-7.81A19.36,19.36,0,0,0,48,26.73a12.32,12.32,0,0,0-10.73-5.59,11.8,11.8,0,0,0-5.06,1.07,11.43,11.43,0,0,0-4,3.1,14.47,14.47,0,0,0-2.63,5A21.92,21.92,0,0,0,24.69,37a31.76,31.76,0,0,0,.92,7.83,19.77,19.77,0,0,0,2.71,6.29,13,13,0,0,0,4.46,4.17A12.53,12.53,0,0,0,39,56.72Z" transform="translate(0 0.05)"/><path class="cls-1" d="M64.82,38.84A20.13,20.13,0,0,1,71,24.15a20.6,20.6,0,0,1,6.76-4.32,22.41,22.41,0,0,1,8.37-1.53,23.16,23.16,0,0,1,8.28,1.46,20.51,20.51,0,0,1,6.76,4.15,19.3,19.3,0,0,1,4.54,6.54,22.63,22.63,0,0,1,.25,16.36,19.11,19.11,0,0,1-4.13,6.49,20.2,20.2,0,0,1-6.68,4.54A22.88,22.88,0,0,1,86,59.53a23.3,23.3,0,0,1-8.22-1.44A20.1,20.1,0,0,1,71.05,54a19.31,19.31,0,0,1-4.56-6.53A21.46,21.46,0,0,1,64.82,38.84ZM86.89,56.72A11.73,11.73,0,0,0,92,55.63a11.11,11.11,0,0,0,4-3.16,15,15,0,0,0,2.61-5,22.33,22.33,0,0,0,.94-6.7,32.12,32.12,0,0,0-.9-7.81A19.36,19.36,0,0,0,96,26.73a12.32,12.32,0,0,0-10.73-5.59,11.8,11.8,0,0,0-5.06,1.07,11.43,11.43,0,0,0-4,3.1,14.47,14.47,0,0,0-2.63,5A21.92,21.92,0,0,0,72.6,37a31.76,31.76,0,0,0,.92,7.83,19.77,19.77,0,0,0,2.71,6.29,13,13,0,0,0,4.46,4.17A12.5,12.5,0,0,0,86.89,56.72Z" transform="translate(0 0.05)"/><path class="cls-1" d="M142,32.61a16.21,16.21,0,0,0-.53-4.44,8.55,8.55,0,0,0-1.52-3.1,6.17,6.17,0,0,0-2.4-1.83,7.78,7.78,0,0,0-3.12-.6,8.59,8.59,0,0,0-2.61.47,19.28,19.28,0,0,0-3,1.27,30,30,0,0,0-6,4.11c0,.83-.08,1.72-.08,2.67V43.65c0,2.21,0,4.13.08,5.78s.13,3.07.23,4.27.22,2.19.35,3a17.38,17.38,0,0,0,.43,2v.16h-9V58.7c.15-.55.3-1.21.45-2a27.82,27.82,0,0,0,.35-3c.09-1.19.17-2.62.23-4.27s.09-3.58.1-5.78V34.2c0-2.21,0-4.13-.1-5.78s-.14-3.07-.23-4.27-.21-2.19-.35-3a17.15,17.15,0,0,0-.45-2V19h9v.16a11.88,11.88,0,0,0-.49,2.28c-.12.92-.24,2.08-.37,3.49,1-.83,2.16-1.65,3.35-2.45A32.94,32.94,0,0,1,130,20.33a24.49,24.49,0,0,1,3.8-1.52,12.74,12.74,0,0,1,3.78-.58,12.2,12.2,0,0,1,3.93.58,10.09,10.09,0,0,1,3,1.6,9.6,9.6,0,0,1,2.16,2.38,11.7,11.7,0,0,1,1.34,2.92q1.6-1.37,3.49-2.71a33.18,33.18,0,0,1,3.9-2.4,25.24,25.24,0,0,1,4.09-1.71,13.39,13.39,0,0,1,4.07-.66,11.62,11.62,0,0,1,5.16,1.05,10,10,0,0,1,3.47,2.77,10.93,10.93,0,0,1,2,3.92,16.77,16.77,0,0,1,.6,4.46V43.68c0,2.21,0,4.13.08,5.78s.13,3.07.23,4.27.23,2.19.37,3a17.15,17.15,0,0,0,.45,2v.16h-9v-.16c.15-.55.3-1.21.45-2a29.85,29.85,0,0,0,.37-3c.11-1.19.18-2.62.23-4.27s.07-3.58.08-5.78v-11q0-5.14-2.06-7.56a6.92,6.92,0,0,0-5.53-2.42,9,9,0,0,0-2.67.47,18.08,18.08,0,0,0-3,1.29,31.1,31.1,0,0,0-6,4.17,6,6,0,0,1,.08.94V43.71c0,2.21,0,4.13.1,5.78s.14,3.07.23,4.27.21,2.19.35,3,.27,1.34.45,2v.16h-9v-.16a19.79,19.79,0,0,0,.43-2c.13-.81.24-1.81.35-3s.18-2.62.23-4.27.08-3.57.08-5.78Z" transform="translate(0 0.05)"/><path class="cls-1" d="M246,46.66a30.66,30.66,0,0,1-7.07,15,120.34,120.34,0,0,0,9.35,8.43,91.47,91.47,0,0,0,9.41,6.73,51.38,51.38,0,0,0,8.93,4.47,22.61,22.61,0,0,0,7.87,1.61,15.22,15.22,0,0,0,2.86-.27v1q-.54.23-1.41.63a14.83,14.83,0,0,1-2.15.76,25.79,25.79,0,0,1-3,.63,25.52,25.52,0,0,1-3.91.27,22.57,22.57,0,0,1-7.53-1.45,48.16,48.16,0,0,1-8.39-4,79.66,79.66,0,0,1-8.79-6.11,106.38,106.38,0,0,1-8.7-7.74,31.81,31.81,0,0,1-8.57,4.07,35,35,0,0,1-10.22,1.43,30.11,30.11,0,0,1-9-1.25,19.33,19.33,0,0,1-6.75-3.57,15.79,15.79,0,0,1-4.27-5.64,17.74,17.74,0,0,1-1.5-7.43,15.94,15.94,0,0,1,1.48-7,20.82,20.82,0,0,1,3.87-5.52,32.36,32.36,0,0,1,5.42-4.41q3.09-2,6.31-3.89a45.15,45.15,0,0,1-2-6.53,27.61,27.61,0,0,1-.72-6.08,17.1,17.1,0,0,1,1.14-6.37,14.18,14.18,0,0,1,3.11-4.81,13.79,13.79,0,0,1,4.63-3,15,15,0,0,1,5.7-1.07,13.64,13.64,0,0,1,4.21.63A10,10,0,0,1,229.69,8,8.77,8.77,0,0,1,232,11.1a10,10,0,0,1,.9,4.2,11.51,11.51,0,0,1-1.27,5.46,17.52,17.52,0,0,1-3.36,4.43A32,32,0,0,1,223.5,29q-2.69,1.74-5.55,3.4a62.65,62.65,0,0,0,3.42,6.8c1.33,2.29,2.79,4.58,4.36,6.87s3.27,4.53,5.1,6.73,3.7,4.35,5.63,6.44a23.54,23.54,0,0,0,3.38-6.62,25.85,25.85,0,0,0,1.23-8.14,38.84,38.84,0,0,0-.42-6.28q-.43-2.53-.87-4.32v-.18h8.05v.18a14.86,14.86,0,0,0-.47,2.39c-.11.88-.22,1.85-.34,2.91s-.25,2.22-.4,3.49S246.23,45.2,246,46.66ZM218,68.13a24.38,24.38,0,0,0,7-1,21.81,21.81,0,0,0,6.1-2.86q-3-3.22-5.9-6.64t-5.37-7c-1.67-2.37-3.22-4.76-4.63-7.16a72.18,72.18,0,0,1-3.69-7.09,42.19,42.19,0,0,0-3.91,3,19.78,19.78,0,0,0-3.15,3.44,16.22,16.22,0,0,0-2.12,4.09,14.54,14.54,0,0,0-.78,4.85,17,17,0,0,0,1.23,6.49,15.41,15.41,0,0,0,8.63,8.61A17.34,17.34,0,0,0,218,68.13Zm-3.35-49.74a25.84,25.84,0,0,0,.58,5.34,46.82,46.82,0,0,0,1.61,5.7Q219,28,220.89,26.57a20.45,20.45,0,0,0,3.31-3.2,14.41,14.41,0,0,0,2.21-3.69,11.29,11.29,0,0,0,.8-4.34,9,9,0,0,0-.33-2.53,6.66,6.66,0,0,0-1-2.1,4.67,4.67,0,0,0-1.72-1.43,5.54,5.54,0,0,0-2.44-.51,6.06,6.06,0,0,0-5.34,2.55,12.23,12.23,0,0,0-1.73,7.08Z" transform="translate(0 0.05)"/><path class="cls-1" d="M267.89,15.86c0-2.21,0-4.14-.1-5.79s-.14-3.08-.23-4.27-.21-2.19-.35-3a17.15,17.15,0,0,0-.45-2V.64h9V.8a17.38,17.38,0,0,0-.43,2c-.13.81-.24,1.81-.35,3s-.18,2.62-.23,4.27-.08,3.58-.08,5.79V43.64c0,2.21,0,4.13.08,5.78s.13,3.07.23,4.27.22,2.19.35,3a17.38,17.38,0,0,0,.43,2v.16h-9v-.16c.18-.66.33-1.33.45-2s.26-1.81.35-3,.17-2.62.23-4.27.1-3.57.1-5.78Z" transform="translate(0 0.05)"/><path class="cls-1" d="M304.34,59.56a23.76,23.76,0,0,1-8.1-1.36,18.85,18.85,0,0,1-6.58-4,18.58,18.58,0,0,1-4.42-6.51,23,23,0,0,1-1.62-8.86,22.08,22.08,0,0,1,1.48-8.16,20.11,20.11,0,0,1,4.09-6.53,19,19,0,0,1,6.1-4.32,18.26,18.26,0,0,1,7.54-1.56,19.72,19.72,0,0,1,7.44,1.38,16.9,16.9,0,0,1,5.94,4,19,19,0,0,1,4,6.51A26.79,26.79,0,0,1,321.79,39c-2.93,0-5.87-.09-8.8-.12s-6,0-9.16,0h-6.6q-3.21,0-5.79.12a30.36,30.36,0,0,0,1.27,7.32,17.58,17.58,0,0,0,2.84,5.59,12.37,12.37,0,0,0,4.4,3.56,13.32,13.32,0,0,0,5.86,1.25,16.6,16.6,0,0,0,4.27-.53,14.91,14.91,0,0,0,3.64-1.46,14.15,14.15,0,0,0,5.1-5l.47.23-2.88,6.93a24,24,0,0,1-5,1.85A28.51,28.51,0,0,1,304.34,59.56ZM299.16,35.8H307q3.91,0,7.11-.14a25.32,25.32,0,0,0-1.33-6.08A15.57,15.57,0,0,0,310.26,25a10.65,10.65,0,0,0-3.58-2.88,10.25,10.25,0,0,0-4.56-1,8.83,8.83,0,0,0-4.15,1A9.73,9.73,0,0,0,294.68,25a15.18,15.18,0,0,0-2.26,4.58,24,24,0,0,0-1,6.18c1.17.05,2.4.08,3.7.08Z" transform="translate(0 0.05)"/><path class="cls-1" d="M327,47.37A10.69,10.69,0,0,1,328.28,42a12.36,12.36,0,0,1,3.37-3.86,18.21,18.21,0,0,1,4.79-2.59A35.67,35.67,0,0,1,342,34a49.56,49.56,0,0,1,5.69-.78c1.87-.14,3.58-.22,5.14-.25V31a13.36,13.36,0,0,0-.66-4.44,8.34,8.34,0,0,0-1.87-3.1,7.61,7.61,0,0,0-2.9-1.83,11,11,0,0,0-3.72-.6,16.4,16.4,0,0,0-2.8.28,15.31,15.31,0,0,0-2.82.78A20.29,20.29,0,0,0,335,23.56a33,33,0,0,0-3.49,2.38l-.39-.23,2.65-5.49a19,19,0,0,1,2.53-1,22.13,22.13,0,0,1,2.53-.6,23.33,23.33,0,0,1,2.63-.33c.89-.07,1.83-.1,2.82-.1a21.85,21.85,0,0,1,7,1A12.91,12.91,0,0,1,356,21.92a10.48,10.48,0,0,1,2.71,4,14.22,14.22,0,0,1,.86,5v12.7c0,2.21,0,4.13.1,5.78s.14,3.07.23,4.27a29.11,29.11,0,0,0,.35,3c.12.67.27,1.34.45,2v.16h-8.61v-.16a8.49,8.49,0,0,0,.29-1.4c.07-.52.12-1.14.17-1.87a19.35,19.35,0,0,1-1.93,1.44,16.1,16.1,0,0,1-2.53,1.34,17.58,17.58,0,0,1-3.16,1,17.94,17.94,0,0,1-3.8.37q-6.78,0-10.48-3.18T327,47.37ZM352.84,36a67.47,67.47,0,0,0-6.82.41A18.73,18.73,0,0,0,340.23,38a9.1,9.1,0,0,0-5.51,9.08q0,4.61,2.3,7a8.36,8.36,0,0,0,6.35,2.42,10.66,10.66,0,0,0,3.41-.53,11.66,11.66,0,0,0,2.73-1.32,9.82,9.82,0,0,0,2-1.75A8.25,8.25,0,0,0,352.76,51c.05-1,.08-2.08.08-3.29V36Z" transform="translate(0 0.05)"/><path class="cls-1" d="M385.79,3.08a7,7,0,0,0-2.08.35,5,5,0,0,0-2,1.29,7.16,7.16,0,0,0-1.56,2.59,12.15,12.15,0,0,0-.62,4.27V19q2.06,0,3.87-.12l3.25-.16c1-.05,1.76-.11,2.41-.17a13.55,13.55,0,0,0,1.4-.18l-.7,4q-1.36,0-3-.12c-.91-.05-2-.09-3.23-.12l-4-.08V43.65c0,2.21,0,4.13.1,5.78s.14,3.07.23,4.27.21,2.19.35,3a17.15,17.15,0,0,0,.45,2v.16h-9V58.7a19.79,19.79,0,0,0,.43-2c.13-.81.24-1.81.35-3s.18-2.62.23-4.27.08-3.57.08-5.78V22l-6.54.23V18.81q1.21.07,2.88.12t3.66,0V12.39a15.08,15.08,0,0,1,.88-5.32A10.94,10.94,0,0,1,376,3.17a10.35,10.35,0,0,1,3.74-2.4A13.49,13.49,0,0,1,384.55,0a17.3,17.3,0,0,1,2.69.19,21.75,21.75,0,0,1,2.24.47,18.28,18.28,0,0,1,1.75.56c.5.19.92.37,1.27.53L394,8.4l-.47.23c-.41-.62-.87-1.26-1.36-1.93a11.52,11.52,0,0,0-1.68-1.81,8.13,8.13,0,0,0-2.08-1.34A6.15,6.15,0,0,0,385.79,3.08Z" transform="translate(0 0.05)"/><path class="cls-1" d="M15.83,81.3a5,5,0,0,1-3.28,4.82c2.45.74,4.43,2.16,4.43,5,0,3.58-3,5.68-7.51,5.68H.29V76.15H9.1C13.17,76.15,15.83,78.16,15.83,81.3Zm-2.36.32c0-2.07-1.63-3.4-4.58-3.4H2.59v7.12H8.71c2.81,0,4.76-1.24,4.76-3.69ZM14.62,91c0-2.28-1.89-3.58-5.5-3.58H2.59v7.3h7c3.13,0,5.08-1.36,5.08-3.69Z" transform="translate(0 0.05)"/><path class="cls-1" d="M30.46,96.84H28.09V88.65l-8.6-12.5h2.84l7,10.35,7-10.35h2.72l-8.6,12.47Z" transform="translate(0 0.05)"/><path class="cls-1" d="M59.06,85.37c4.61,1,6.74,2.69,6.74,5.88,0,3.58-3,5.88-7.06,5.88a12.11,12.11,0,0,1-8.45-3.31l1.45-1.71A9.88,9.88,0,0,0,58.83,95c2.78,0,4.61-1.45,4.61-3.55s-1-3-5.38-4c-4.76-1-7-2.57-7-6s2.87-5.68,6.8-5.68a10.79,10.79,0,0,1,7.27,2.54l-1.36,1.8a9.12,9.12,0,0,0-6-2.25c-2.69,0-4.4,1.48-4.4,3.37S54.51,84.4,59.06,85.37Z" transform="translate(0 0.05)"/><path class="cls-1" d="M89.82,96.84H87.31l-2.42-5.47H73.63l-2.45,5.47H68.79L78.22,76h2.19ZM79.27,78.72,74.54,89.3H84Z" transform="translate(0 0.05)"/><path class="cls-1" d="M113.17,96.84h-2.51l-2.42-5.47H97l-2.45,5.47H92.13L101.56,76h2.19ZM102.62,78.72,97.89,89.3h9.43Z" transform="translate(0 0.05)"/><path class="cls-1" d="M125.07,96.84h-2.36V78.3h-6.95V76.14H132V78.3h-7Z" transform="translate(0 0.05)"/><path class="cls-1" d="M152,76.15h2.51L145.58,97h-2.07l-8.9-20.84h2.6L144.57,94Z" transform="translate(0 0.05)"/><path class="cls-1" d="M177.82,96.84h-2.51l-2.42-5.47H161.62l-2.45,5.47h-2.39L166.21,76h2.19ZM167.27,78.72,162.54,89.3H172Z" transform="translate(0 0.05)"/></svg>