<svg id="Layer_1" data-name="Layer 1" xmlns="http://www.w3.org/2000/svg" viewBox="0 0 394.01 97.14"><defs><style>.cls-1{fill:#58585a;}</style></defs><title>L&amp;amp;LlogoF</title><path class="cls-1" d="M97.24,346.56q0-3.31-.1-5.79t-.23-4.27q-.14-1.79-.35-3t-.45-2v-.16h9v.16a17.88,17.88,0,0,0-.43,2q-.2,1.21-.35,3t-.23,4.27q-.08,2.47-.08,5.79v27.78q0,3.31.08,5.78t.23,4.27q.16,1.79.35,3a17.84,17.84,0,0,0,.43,2v.16h-9v-.16q.23-.82.45-2t.35-3q.14-1.79.23-4.27t.1-5.78Z" transform="translate(-96.11 -330.7)"/><path class="cls-1" d="M113,369.54a20.16,20.16,0,0,1,6.14-14.69,20.65,20.65,0,0,1,6.76-4.32,22.34,22.34,0,0,1,8.38-1.56,23.28,23.28,0,0,1,8.28,1.46,20.29,20.29,0,0,1,6.76,4.15,19.14,19.14,0,0,1,4.54,6.54,22.68,22.68,0,0,1,.25,16.36,19.17,19.17,0,0,1-4.13,6.54,20.09,20.09,0,0,1-6.68,4.54,22.92,22.92,0,0,1-9.1,1.69,23.3,23.3,0,0,1-8.22-1.44,20.06,20.06,0,0,1-6.74-4.13,19.4,19.4,0,0,1-4.56-6.53A21.34,21.34,0,0,1,113,369.54Zm22.09,17.88a11.78,11.78,0,0,0,5.08-1.09,11.27,11.27,0,0,0,4-3.16,15.09,15.09,0,0,0,2.61-5,22.21,22.21,0,0,0,.94-6.7,32.32,32.32,0,0,0-.9-7.81,19.47,19.47,0,0,0-2.67-6.23,12.33,12.33,0,0,0-10.73-5.59,11.84,11.84,0,0,0-5.06,1.07,11.51,11.51,0,0,0-4,3.1,14.47,14.47,0,0,0-2.63,5,22,22,0,0,0-.93,6.68,31.88,31.88,0,0,0,.92,7.83,19.94,19.94,0,0,0,2.71,6.29,13,13,0,0,0,4.46,4.17A12.47,12.47,0,0,0,135.07,387.42Z" transform="translate(-96.11 -330.7)"/><path class="cls-1" d="M160.93,369.54a20.16,20.16,0,0,1,6.14-14.69,20.65,20.65,0,0,1,6.76-4.32A22.34,22.34,0,0,1,182.2,349a23.28,23.28,0,0,1,8.28,1.46,20.29,20.29,0,0,1,6.76,4.15,19.14,19.14,0,0,1,4.54,6.54,22.68,22.68,0,0,1,.25,16.36A19.17,19.17,0,0,1,197.9,384a20.09,20.09,0,0,1-6.68,4.54,22.92,22.92,0,0,1-9.1,1.69,23.3,23.3,0,0,1-8.22-1.44,20.06,20.06,0,0,1-6.74-4.13,19.4,19.4,0,0,1-4.56-6.53A21.34,21.34,0,0,1,160.93,369.54ZM183,387.42a11.78,11.78,0,0,0,5.08-1.09,11.27,11.27,0,0,0,4-3.16,15.09,15.09,0,0,0,2.61-5,22.21,22.21,0,0,0,.94-6.7,32.32,32.32,0,0,0-.9-7.81,19.47,19.47,0,0,0-2.67-6.23,12.33,12.33,0,0,0-10.73-5.59,11.84,11.84,0,0,0-5.06,1.07,11.51,11.51,0,0,0-4,3.1,14.47,14.47,0,0,0-2.63,5,22,22,0,0,0-.93,6.68,31.88,31.88,0,0,0,.92,7.83,19.94,19.94,0,0,0,2.71,6.29,13,13,0,0,0,4.46,4.17A12.47,12.47,0,0,0,183,387.42Z" transform="translate(-96.11 -330.7)"/><path class="cls-1" d="M238.15,363.31a16.51,16.51,0,0,0-.53-4.44,8.52,8.52,0,0,0-1.52-3.1,6.21,6.21,0,0,0-2.4-1.83,7.8,7.8,0,0,0-3.12-.6,8.54,8.54,0,0,0-2.61.47,19.7,19.7,0,0,0-3,1.27,30.25,30.25,0,0,0-6,4.11q-.08,1.25-.08,2.67v12.49q0,3.31.08,5.78t.23,4.27q.16,1.79.35,3a17.82,17.82,0,0,0,.43,2v.16h-9v-.16q.23-.82.45-2t.35-3q.14-1.79.23-4.27t.1-5.78V364.9q0-3.31-.1-5.78t-.23-4.27q-.14-1.79-.35-3t-.45-2v-.16h9v.16a11.45,11.45,0,0,0-.49,2.28q-.18,1.38-.37,3.49,1.56-1.25,3.35-2.45a31.93,31.93,0,0,1,3.68-2.14,25.12,25.12,0,0,1,3.8-1.52,12.86,12.86,0,0,1,3.78-.58,12.18,12.18,0,0,1,3.93.58,10,10,0,0,1,3,1.6,9.68,9.68,0,0,1,2.16,2.38,11.5,11.5,0,0,1,1.34,2.92q1.6-1.36,3.49-2.71a33.71,33.71,0,0,1,3.9-2.4,25.27,25.27,0,0,1,4.09-1.71,13.4,13.4,0,0,1,4.07-.66,11.54,11.54,0,0,1,5.16,1.05,9.92,9.92,0,0,1,3.47,2.77,11,11,0,0,1,1.95,3.92,16.8,16.8,0,0,1,.6,4.46v13.25q0,3.31.08,5.78t.23,4.27q.16,1.79.37,3t.45,2v.16h-9v-.16q.23-.82.45-2t.37-3q.16-1.79.23-4.27t.08-5.78v-11q0-5.14-2.06-7.56a6.91,6.91,0,0,0-5.53-2.42,8.82,8.82,0,0,0-2.67.47,19,19,0,0,0-3,1.29,31.31,31.31,0,0,0-6,4.17,5.75,5.75,0,0,1,.08.94v14.14q0,3.31.1,5.78t.23,4.27q.14,1.79.35,3a20.56,20.56,0,0,0,.45,2v.16h-9v-.16a18,18,0,0,0,.43-2q.19-1.21.35-3t.23-4.27q.08-2.47.08-5.78Z" transform="translate(-96.11 -330.7)"/><path class="cls-1" d="M342.07,377.36a30.67,30.67,0,0,1-7.07,15,119.37,119.37,0,0,0,9.35,8.43,92.21,92.21,0,0,0,9.41,6.73,51.45,51.45,0,0,0,8.93,4.47,22.57,22.57,0,0,0,7.87,1.61,15.48,15.48,0,0,0,2.86-.27v1q-.54.22-1.41.63a14.58,14.58,0,0,1-2.15.76,26.1,26.1,0,0,1-3,.63,25.64,25.64,0,0,1-3.91.27,22.38,22.38,0,0,1-7.53-1.45,49,49,0,0,1-8.39-4,78.8,78.8,0,0,1-8.79-6.11,106.16,106.16,0,0,1-8.7-7.74,31.72,31.72,0,0,1-8.57,4.07,34.78,34.78,0,0,1-10.22,1.43,30.15,30.15,0,0,1-9-1.25A19.41,19.41,0,0,1,295,398a15.71,15.71,0,0,1-4.27-5.64,17.79,17.79,0,0,1-1.5-7.43,15.93,15.93,0,0,1,1.48-7,20.87,20.87,0,0,1,3.87-5.52A32,32,0,0,1,300,368q3.09-2,6.31-3.89a46,46,0,0,1-2-6.53,27.63,27.63,0,0,1-.72-6.08,17,17,0,0,1,1.14-6.37,14.14,14.14,0,0,1,3.11-4.81,13.72,13.72,0,0,1,4.63-3,15.09,15.09,0,0,1,5.7-1.07,13.81,13.81,0,0,1,4.21.63,9.9,9.9,0,0,1,3.42,1.86,8.82,8.82,0,0,1,2.3,3.06A10,10,0,0,1,329,346a11.51,11.51,0,0,1-1.27,5.46,17.51,17.51,0,0,1-3.36,4.43,31.45,31.45,0,0,1-4.76,3.76q-2.68,1.74-5.55,3.4a62.62,62.62,0,0,0,3.42,6.8q2,3.44,4.36,6.87t5.1,6.73q2.73,3.31,5.63,6.44a23.37,23.37,0,0,0,3.38-6.62,25.73,25.73,0,0,0,1.23-8.14,39,39,0,0,0-.42-6.28q-.43-2.53-.87-4.32v-.18h8.05v.18a14.64,14.64,0,0,0-.47,2.39q-.16,1.32-.34,2.91t-.4,3.49Q342.47,375.17,342.07,377.36Zm-28,21.47a24.61,24.61,0,0,0,7-1,21.84,21.84,0,0,0,6.1-2.86q-3-3.22-5.9-6.64t-5.37-7q-2.51-3.56-4.63-7.16a71.4,71.4,0,0,1-3.69-7.09,43,43,0,0,0-3.91,3,19.61,19.61,0,0,0-3.15,3.44,16.43,16.43,0,0,0-2.12,4.09,14.47,14.47,0,0,0-.78,4.85,16.91,16.91,0,0,0,1.23,6.49,15.41,15.41,0,0,0,8.63,8.61A17.33,17.33,0,0,0,314.11,398.83Zm-3.35-49.74a25.79,25.79,0,0,0,.58,5.34,46.71,46.71,0,0,0,1.61,5.7q2.19-1.39,4.09-2.86a20.49,20.49,0,0,0,3.31-3.2,14.4,14.4,0,0,0,2.21-3.69,11.32,11.32,0,0,0,.8-4.34,9.21,9.21,0,0,0-.33-2.53,6.59,6.59,0,0,0-1-2.1,4.65,4.65,0,0,0-1.72-1.43,5.49,5.49,0,0,0-2.44-.51,6.06,6.06,0,0,0-5.34,2.55A12.25,12.25,0,0,0,310.76,349.1Z" transform="translate(-96.11 -330.7)"/><path class="cls-1" d="M364,346.56q0-3.31-.1-5.79t-.23-4.27q-.14-1.79-.35-3t-.45-2v-.16h9v.16a17.67,17.67,0,0,0-.43,2q-.19,1.21-.35,3t-.23,4.27q-.08,2.47-.08,5.79v27.78q0,3.31.08,5.78t.23,4.27q.15,1.79.35,3a17.63,17.63,0,0,0,.43,2v.16h-9v-.16a20.75,20.75,0,0,0,.45-2q.21-1.21.35-3t.23-4.27q.1-2.47.1-5.78Z" transform="translate(-96.11 -330.7)"/><path class="cls-1" d="M400.45,390.26a23.69,23.69,0,0,1-8.1-1.36,18.86,18.86,0,0,1-6.58-4,18.56,18.56,0,0,1-4.42-6.51,22.86,22.86,0,0,1-1.62-8.86,22.1,22.1,0,0,1,1.48-8.16,20.16,20.16,0,0,1,4.09-6.53,18.9,18.9,0,0,1,6.1-4.32,18.26,18.26,0,0,1,7.54-1.56,19.71,19.71,0,0,1,7.44,1.38,16.83,16.83,0,0,1,5.94,4,19,19,0,0,1,4,6.51,26.75,26.75,0,0,1,1.58,8.82q-4.4-.08-8.8-.12t-9.16,0q-3.39,0-6.6,0t-5.79.12a30,30,0,0,0,1.27,7.32,17.53,17.53,0,0,0,2.84,5.59,12.28,12.28,0,0,0,4.4,3.56,13.35,13.35,0,0,0,5.86,1.25,16.79,16.79,0,0,0,4.27-.53,14.94,14.94,0,0,0,3.64-1.46,14.15,14.15,0,0,0,5.1-4.95l.47.23-2.88,6.93a24.16,24.16,0,0,1-5,1.85A28.17,28.17,0,0,1,400.45,390.26Zm-5.18-23.76,7.81,0q3.91,0,7.11-.14a25.56,25.56,0,0,0-1.33-6.08,15.56,15.56,0,0,0-2.49-4.56,10.61,10.61,0,0,0-3.58-2.88,10.22,10.22,0,0,0-4.56-1,8.77,8.77,0,0,0-4.15,1,9.81,9.81,0,0,0-3.29,2.86,15.22,15.22,0,0,0-2.26,4.58,24,24,0,0,0-1,6.18q1.75.08,3.7.08Z" transform="translate(-96.11 -330.7)"/><path class="cls-1" d="M423.12,378.07a10.74,10.74,0,0,1,1.27-5.34,12.42,12.42,0,0,1,3.37-3.86,18.43,18.43,0,0,1,4.79-2.59,36,36,0,0,1,5.57-1.56,48.83,48.83,0,0,1,5.69-.78q2.8-.21,5.14-.25v-2a13.34,13.34,0,0,0-.66-4.44,8.29,8.29,0,0,0-1.87-3.1,7.58,7.58,0,0,0-2.9-1.83,11,11,0,0,0-3.72-.6A16.38,16.38,0,0,0,437,352a15.64,15.64,0,0,0-2.82.78,20.51,20.51,0,0,0-3.08,1.48,32.16,32.16,0,0,0-3.49,2.38l-.39-.23,2.65-5.49a19.63,19.63,0,0,1,2.53-1,24,24,0,0,1,2.53-.6,24.77,24.77,0,0,1,2.63-.33q1.34-.1,2.82-.1a21.71,21.71,0,0,1,7,1,13,13,0,0,1,4.75,2.73,10.49,10.49,0,0,1,2.71,4.05,14.23,14.23,0,0,1,.86,5v12.7q0,3.31.1,5.78t.23,4.27q.13,1.79.35,3a20.33,20.33,0,0,0,.45,2v.16h-8.61v-.16a8.13,8.13,0,0,0,.29-1.4q.1-.78.17-1.87a20,20,0,0,1-1.93,1.44,15.36,15.36,0,0,1-2.53,1.34,17.34,17.34,0,0,1-3.16,1,18.2,18.2,0,0,1-3.8.37q-6.78,0-10.48-3.18T423.12,378.07Zm25.83-11.34a67.31,67.31,0,0,0-6.82.41,18.62,18.62,0,0,0-5.79,1.54,9.1,9.1,0,0,0-5.51,9.08q0,4.6,2.3,7a8.34,8.34,0,0,0,6.35,2.42,10.47,10.47,0,0,0,3.41-.53,11.56,11.56,0,0,0,2.73-1.32,9.86,9.86,0,0,0,2-1.75,8.56,8.56,0,0,0,1.25-1.85q.08-1.48.08-3.29V366.73Z" transform="translate(-96.11 -330.7)"/><path class="cls-1" d="M481.9,333.78a7,7,0,0,0-2.08.35,5,5,0,0,0-2,1.29,7.21,7.21,0,0,0-1.56,2.59,12.3,12.3,0,0,0-.62,4.27v7.4q2.06,0,3.87-.12l3.25-.16q1.44-.08,2.41-.17c.65-.06,1.12-.12,1.4-.18l-.7,4q-1.37,0-3-.12-1.37-.08-3.23-.12l-4.05-.08v21.62q0,3.31.1,5.78t.23,4.27q.14,1.79.35,3t.45,2v.16h-9v-.16a18,18,0,0,0,.43-2q.19-1.21.35-3t.23-4.27q.08-2.47.08-5.78V352.71l-6.54.23v-3.43q1.21.08,2.88.12t3.66,0v-6.54a15,15,0,0,1,.88-5.32,11,11,0,0,1,2.44-3.9,10.22,10.22,0,0,1,3.74-2.4,13.55,13.55,0,0,1,4.79-.82,17.52,17.52,0,0,1,2.69.19,20.61,20.61,0,0,1,2.24.47q1,.27,1.75.56t1.27.53l1.52,6.7-.47.23q-.62-.93-1.36-1.93a11.61,11.61,0,0,0-1.68-1.81,8.5,8.5,0,0,0-2.08-1.34A6.26,6.26,0,0,0,481.9,333.78Z" transform="translate(-96.11 -330.7)"/><path class="cls-1" d="M111.94,412a5,5,0,0,1-3.28,4.82c2.45.74,4.43,2.16,4.43,5,0,3.58-3,5.68-7.51,5.68H96.4V406.85h8.81C109.28,406.85,111.94,408.86,111.94,412Zm-2.36.32c0-2.07-1.63-3.4-4.58-3.4H98.7v7.12h6.12C107.63,416.07,109.58,414.8,109.58,412.35Zm1.15,9.37c0-2.28-1.89-3.58-5.5-3.58H98.7v7.3h6.95C108.78,425.44,110.73,424.05,110.73,421.72Z" transform="translate(-96.11 -330.7)"/><path class="cls-1" d="M126.57,427.54H124.2v-8.19l-8.6-12.5h2.84l7,10.35,7-10.35h2.72l-8.6,12.47Z" transform="translate(-96.11 -330.7)"/><path class="cls-1" d="M155.17,416.07c4.61,1,6.74,2.69,6.74,5.88,0,3.58-3,5.88-7.06,5.88a12.11,12.11,0,0,1-8.45-3.31l1.45-1.71a9.85,9.85,0,0,0,7.09,2.93c2.78,0,4.61-1.45,4.61-3.55s-1-3-5.38-4c-4.76-1-6.95-2.57-6.95-6s2.87-5.68,6.8-5.68a10.79,10.79,0,0,1,7.27,2.54l-1.36,1.8a9.09,9.09,0,0,0-6-2.25c-2.69,0-4.4,1.48-4.4,3.37S150.62,415.1,155.17,416.07Z" transform="translate(-96.11 -330.7)"/><path class="cls-1" d="M185.93,427.54h-2.51L181,422.07H169.74l-2.45,5.47h-2.39l9.43-20.84h2.19Zm-10.55-18.12L170.65,420h9.43Z" transform="translate(-96.11 -330.7)"/><path class="cls-1" d="M209.28,427.54h-2.51l-2.42-5.47H193.08l-2.45,5.47h-2.39l9.43-20.84h2.19Zm-10.55-18.12L194,420h9.43Z" transform="translate(-96.11 -330.7)"/><path class="cls-1" d="M221.18,427.54h-2.36V409h-6.95v-2.16h16.26V409h-6.95Z" transform="translate(-96.11 -330.7)"/><path class="cls-1" d="M248.08,406.85h2.51l-8.9,20.84h-2.07l-8.9-20.84h2.6l7.36,17.82Z" transform="translate(-96.11 -330.7)"/><path class="cls-1" d="M273.93,427.54h-2.51L269,422.07H257.73l-2.45,5.47h-2.39l9.43-20.84h2.19Zm-10.55-18.12L258.65,420h9.43Z" transform="translate(-96.11 -330.7)"/></svg>