<svg id="Layer_1" data-name="Layer 1" xmlns="http://www.w3.org/2000/svg" viewBox="0 0 62 44.13"><defs><style>.cls-1{fill:#58585a;}.cls-2{fill:#fff;}.cls-3{fill:none;}</style></defs><title>saatva_boxlogo_RGB</title><g id="footer-logo-saatva"><rect class="cls-1" width="62" height="44.13"/><path class="cls-2" d="M59.5,41.39H2.68V2.61H59.5ZM3.13,40.94H59.06V3.06H3.13Z" transform="translate(0 0.07)"/><path class="cls-2" d="M55.44,26.36V22.15a4.77,4.77,0,0,0-.33-1.75,4.46,4.46,0,0,0-.9-1.41,4.06,4.06,0,0,0-1.33-1,4.28,4.28,0,0,0-3.33,0,4.14,4.14,0,0,0-1.34.93,4.49,4.49,0,0,0-.91,1.41,5.24,5.24,0,0,0,0,3.58,4.22,4.22,0,0,0,2.24,2.33,4.14,4.14,0,0,0,1.63.34,3.29,3.29,0,0,0,1.65-.41,3.77,3.77,0,0,0,1.25-1.1l.27-.38v1.67ZM54,23.47a3.82,3.82,0,0,1-.66,1.07,3,3,0,0,1-1,.73,2.81,2.81,0,0,1-1.21.27A2.92,2.92,0,0,1,50,25.28a3.12,3.12,0,0,1-1-.72,3.48,3.48,0,0,1-.66-1.07,3.83,3.83,0,0,1,0-2.67,3.33,3.33,0,0,1,.66-1.1A3.12,3.12,0,0,1,50,19a2.8,2.8,0,0,1,2.4,0,3.18,3.18,0,0,1,1,.74,3.69,3.69,0,0,1,.6,1.08,3.64,3.64,0,0,1,0,2.65Z" transform="translate(0 0.07)"/><path class="cls-2" d="M9.12,20.05a7.31,7.31,0,0,0-.24,2.08,8.37,8.37,0,0,1-.05,1,4.25,4.25,0,0,1-.14.71,1.86,1.86,0,0,1-.22.5,2.24,2.24,0,0,1-.27.34,2,2,0,0,1-.8.45,2.88,2.88,0,0,1-.92.12v1.13a3.75,3.75,0,0,0,1.33-.18,3,3,0,0,0,2-2A7.2,7.2,0,0,0,10,22.13a8.37,8.37,0,0,1,.05-1,4.25,4.25,0,0,1,.14-.71,1.86,1.86,0,0,1,.22-.5,2,2,0,0,1,.29-.36,1.81,1.81,0,0,1,.86-.46A4,4,0,0,1,12.4,19h0V17.91a3.32,3.32,0,0,0-2.5.83A2.93,2.93,0,0,0,9.12,20.05Z" transform="translate(0 0.07)"/><path class="cls-2" d="M31.68,26.36V22.15a4.77,4.77,0,0,0-.33-1.75,4.46,4.46,0,0,0-.9-1.41,4.06,4.06,0,0,0-1.33-1,4.28,4.28,0,0,0-3.33,0,4.14,4.14,0,0,0-1.34.93,4.49,4.49,0,0,0-.91,1.41,4.84,4.84,0,0,0,0,3.54,4.22,4.22,0,0,0,2.24,2.33,4.14,4.14,0,0,0,1.63.34,3.29,3.29,0,0,0,1.65-.41A3.77,3.77,0,0,0,30.3,25l.27-.38v1.67Zm-1.39-2.89a3.82,3.82,0,0,1-.66,1.07,3,3,0,0,1-1,.73,2.81,2.81,0,0,1-1.21.27,3,3,0,0,1-1.2-.26,3.12,3.12,0,0,1-1-.72,3.48,3.48,0,0,1-.66-1.07,3.83,3.83,0,0,1,0-2.67,3.39,3.39,0,0,1,.66-1.09,3.15,3.15,0,0,1,1-.73,2.8,2.8,0,0,1,2.4,0,3.18,3.18,0,0,1,1,.74,3.6,3.6,0,0,1,.67,1.09,3.53,3.53,0,0,1,.25,1.33A3.47,3.47,0,0,1,30.29,23.47Z" transform="translate(0 0.07)"/><path class="cls-2" d="M34.7,25.73a2.4,2.4,0,0,0,1,.55,3.52,3.52,0,0,0,1.21.09v-1a2.81,2.81,0,0,1-.65-.05,1.71,1.71,0,0,1-.7-.32,1.63,1.63,0,0,1-.48-.65,2.63,2.63,0,0,1-.17-1V19h2V17.92h-2V16H33.79v7.27A3.81,3.81,0,0,0,34,24.73,2.67,2.67,0,0,0,34.7,25.73Z" transform="translate(0 0.07)"/><polygon class="cls-2" points="44.97 17.99 42.56 24.81 42.35 24.81 42.3 24.71 39.92 17.99 38.71 17.99 41.78 26.43 43.11 26.43 46.18 17.99 44.97 17.99"/><path class="cls-2" d="M21.7,26.36V22.15a4.77,4.77,0,0,0-.33-1.75,4.46,4.46,0,0,0-.9-1.41,4.06,4.06,0,0,0-1.33-1,4.28,4.28,0,0,0-3.33,0,4.14,4.14,0,0,0-1.34.93,4.49,4.49,0,0,0-.91,1.41,4.84,4.84,0,0,0,0,3.54,4.22,4.22,0,0,0,2.24,2.33,4.14,4.14,0,0,0,1.63.34,3.29,3.29,0,0,0,1.65-.41A3.77,3.77,0,0,0,20.32,25l.27-.38v1.67Zm-1.39-2.89a3.82,3.82,0,0,1-.66,1.07,3,3,0,0,1-1,.73,2.81,2.81,0,0,1-1.21.27,3,3,0,0,1-1.21-.26,3.12,3.12,0,0,1-1-.72,3.48,3.48,0,0,1-.66-1.07,3.83,3.83,0,0,1,0-2.67,3.39,3.39,0,0,1,.66-1.09,3.15,3.15,0,0,1,1-.73,2.8,2.8,0,0,1,2.4,0,3.18,3.18,0,0,1,1,.74,3.6,3.6,0,0,1,.67,1.09,3.53,3.53,0,0,1,.25,1.33A3.66,3.66,0,0,1,20.31,23.47Z" transform="translate(0 0.07)"/><rect class="cls-3" width="62" height="44.13"/></g></svg>