<svg id="Layer_1" data-name="Layer 1" xmlns="http://www.w3.org/2000/svg" viewBox="0 0 536.67 96.32"><defs><style>.cls-1{fill:#58595b;}.cls-2{fill:#1e8b7d;}.cls-3{fill:#414042;}</style></defs><title>ZenHavenLogo</title><path class="cls-1" d="M230.74,127.14a4.07,4.07,0,0,1-2.66,3.91c2,.6,3.6,1.75,3.6,4.08,0,2.9-2.42,4.61-6.1,4.61h-7.46v-16.8h7.15C228.58,122.94,230.74,124.57,230.74,127.14Zm-1.92.26c0-1.68-1.32-2.76-3.72-2.76H220v5.79h5C227.23,130.42,228.82,129.39,228.82,127.4Zm.94,7.61c0-1.85-1.54-2.9-4.46-2.9H220V138h5.64C228.17,138,229.75,136.9,229.75,135Z" transform="translate(-36.46 -43.66)"/><path class="cls-1" d="M245.5,139.74h-1.92v-6.65l-7-10.15h2.3l5.67,8.4,5.71-8.4h2.21l-7,10.13Z" transform="translate(-36.46 -43.66)"/><path class="cls-1" d="M275.93,130.42c3.75.82,5.47,2.18,5.47,4.78,0,2.9-2.4,4.78-5.74,4.78a9.83,9.83,0,0,1-6.86-2.69L270,135.9a8,8,0,0,0,5.76,2.38c2.26,0,3.74-1.18,3.74-2.88s-.84-2.47-4.37-3.22c-3.86-.84-5.64-2.09-5.64-4.87s2.33-4.61,5.52-4.61a8.76,8.76,0,0,1,5.9,2.06l-1.1,1.46a7.38,7.38,0,0,0-4.85-1.82c-2.18,0-3.58,1.2-3.58,2.74S272.23,129.63,275.93,130.42Z" transform="translate(-36.46 -43.66)"/><path class="cls-1" d="M304.15,139.74h-2l-2-4.44H291l-2,4.44h-1.94l7.66-16.92h1.78ZM295.59,125l-3.84,8.57h7.66Z" transform="translate(-36.46 -43.66)"/><path class="cls-1" d="M327.89,139.74h-2l-2-4.44h-9.15l-2,4.44H310.8l7.66-16.92h1.78ZM319.32,125l-3.84,8.57h7.66Z" transform="translate(-36.46 -43.66)"/><path class="cls-1" d="M339,139.74h-1.92v-15h-5.64v-1.75h13.2v1.75H339Z" transform="translate(-36.46 -43.66)"/><path class="cls-1" d="M364.66,122.94h2l-7.22,16.92h-1.68l-7.22-16.92h2.11l6,14.47Z" transform="translate(-36.46 -43.66)"/><path class="cls-1" d="M388.06,139.74h-2l-2-4.44h-9.15l-2,4.44H371l7.66-16.92h1.78ZM379.49,125l-3.84,8.57h7.66Z" transform="translate(-36.46 -43.66)"/><path class="cls-2" d="M42.43,97.79h36V102h-42V98.23L71.06,47.82H37.5V43.66H77.14v3.49Z" transform="translate(-36.46 -43.66)"/><path class="cls-2" d="M140.24,74H113V97.79h31.35V102H108.05V43.66h36.08v4.16H113v22h27.27Z" transform="translate(-36.46 -43.66)"/><path class="cls-2" d="M217,102H212L178.52,52.07V102h-5V43.66h5l33.55,49.93V43.66H217Z" transform="translate(-36.46 -43.66)"/><path class="cls-3" d="M293.92,102h-5V74H255.65V102h-4.92V43.66h4.92V69.84H289V43.66h5Z" transform="translate(-36.46 -43.66)"/><path class="cls-3" d="M359.72,85.58H333.26l-6,16.38h-5.17l22.06-58.3h4.68L370.9,102h-5.12Zm-24.94-4.16h23.38L346.47,49.66Z" transform="translate(-36.46 -43.66)"/><path class="cls-3" d="M412.38,94.75,412.7,96l.36-1.24,18.34-51.09h5.41L415.1,102h-4.72l-21.7-58.3H394Z" transform="translate(-36.46 -43.66)"/><path class="cls-3" d="M496.42,74H469.15V97.79H500.5V102H464.23V43.66H500.3v4.16H469.15v22h27.27Z" transform="translate(-36.46 -43.66)"/><path class="cls-3" d="M573.14,102h-4.92L534.7,52.07V102h-5V43.66h5l33.55,49.93V43.66h4.88Z" transform="translate(-36.46 -43.66)"/></svg>